<mxfile host="drawio-plugin" modified="2023-09-12T13:41:04.729Z" agent="5.0 (Macintosh; Intel Mac OS X 10_15_7) AppleWebKit/537.36 (KHTML, like Gecko) Chrome/111.0.0.0 Safari/537.36" etag="Qw4py4eEOBswoY3GTc4T" version="20.5.3" type="embed"><diagram id="ht9eV9usg_yVlJPC8wkR" name="Page-1"><mxGraphModel dx="912" dy="507" grid="1" gridSize="10" guides="1" tooltips="1" connect="1" arrows="1" fold="1" page="1" pageScale="1" pageWidth="850" pageHeight="1100" math="0" shadow="0"><root><mxCell id="0"/><mxCell id="1" parent="0"/><mxCell id="EzQO0P8P0J9VhYN0GSIs-1" value="Heap Memory" style="rounded=0;whiteSpace=wrap;html=1;" parent="1" vertex="1"><mxGeometry x="240" y="180" width="160" height="90" as="geometry"/></mxCell><mxCell id="EzQO0P8P0J9VhYN0GSIs-2" value="" style="rounded=0;whiteSpace=wrap;html=1;" parent="1" vertex="1"><mxGeometry x="240" y="270" width="160" height="250" as="geometry"/></mxCell><mxCell id="EzQO0P8P0J9VhYN0GSIs-3" value="String" style="rounded=0;whiteSpace=wrap;html=1;" parent="1" vertex="1"><mxGeometry x="260" y="290" width="120" height="30" as="geometry"/></mxCell><mxCell id="EzQO0P8P0J9VhYN0GSIs-4" value="junghun" style="rounded=0;whiteSpace=wrap;html=1;" parent="1" vertex="1"><mxGeometry x="260" y="320" width="120" height="50" as="geometry"/></mxCell><mxCell id="EzQO0P8P0J9VhYN0GSIs-6" value="" style="rounded=0;whiteSpace=wrap;html=1;" parent="1" vertex="1"><mxGeometry x="110" y="320" width="80" height="50" as="geometry"/></mxCell><mxCell id="EzQO0P8P0J9VhYN0GSIs-7" value="name" style="text;html=1;strokeColor=none;fillColor=none;align=center;verticalAlign=middle;whiteSpace=wrap;rounded=0;" parent="1" vertex="1"><mxGeometry x="60" y="330" width="60" height="30" as="geometry"/></mxCell><mxCell id="EzQO0P8P0J9VhYN0GSIs-8" value="" style="endArrow=classic;html=1;rounded=0;entryX=0;entryY=0.5;entryDx=0;entryDy=0;exitX=1;exitY=0.5;exitDx=0;exitDy=0;" parent="1" source="EzQO0P8P0J9VhYN0GSIs-6" target="EzQO0P8P0J9VhYN0GSIs-4" edge="1"><mxGeometry width="50" height="50" relative="1" as="geometry"><mxPoint x="190" y="350" as="sourcePoint"/><mxPoint x="240" y="300" as="targetPoint"/></mxGeometry></mxCell><mxCell id="EzQO0P8P0J9VhYN0GSIs-9" value="Stack Memory" style="rounded=0;whiteSpace=wrap;html=1;" parent="1" vertex="1"><mxGeometry x="615" y="175" width="160" height="90" as="geometry"/></mxCell><mxCell id="EzQO0P8P0J9VhYN0GSIs-10" value="" style="rounded=0;whiteSpace=wrap;html=1;" parent="1" vertex="1"><mxGeometry x="615" y="265" width="160" height="250" as="geometry"/></mxCell><mxCell id="EzQO0P8P0J9VhYN0GSIs-11" value="String" style="rounded=0;whiteSpace=wrap;html=1;" parent="1" vertex="1"><mxGeometry x="635" y="285" width="120" height="30" as="geometry"/></mxCell><mxCell id="EzQO0P8P0J9VhYN0GSIs-12" value="j" style="rounded=0;whiteSpace=wrap;html=1;" parent="1" vertex="1"><mxGeometry x="635" y="315" width="120" height="50" as="geometry"/></mxCell><mxCell id="EzQO0P8P0J9VhYN0GSIs-13" value="" style="rounded=0;whiteSpace=wrap;html=1;" parent="1" vertex="1"><mxGeometry x="485" y="315" width="80" height="50" as="geometry"/></mxCell><mxCell id="EzQO0P8P0J9VhYN0GSIs-14" value="first" style="text;html=1;strokeColor=none;fillColor=none;align=center;verticalAlign=middle;whiteSpace=wrap;rounded=0;" parent="1" vertex="1"><mxGeometry x="425" y="325" width="60" height="30" as="geometry"/></mxCell><mxCell id="EzQO0P8P0J9VhYN0GSIs-15" value="" style="endArrow=classic;html=1;rounded=0;entryX=0;entryY=0.5;entryDx=0;entryDy=0;exitX=1;exitY=0.5;exitDx=0;exitDy=0;" parent="1" source="EzQO0P8P0J9VhYN0GSIs-13" target="EzQO0P8P0J9VhYN0GSIs-12" edge="1"><mxGeometry width="50" height="50" relative="1" as="geometry"><mxPoint x="565" y="345" as="sourcePoint"/><mxPoint x="615" y="295" as="targetPoint"/></mxGeometry></mxCell><mxCell id="EzQO0P8P0J9VhYN0GSIs-16" value="String" style="rounded=0;whiteSpace=wrap;html=1;" parent="1" vertex="1"><mxGeometry x="635" y="390" width="120" height="30" as="geometry"/></mxCell><mxCell id="EzQO0P8P0J9VhYN0GSIs-17" value="n" style="rounded=0;whiteSpace=wrap;html=1;" parent="1" vertex="1"><mxGeometry x="635" y="420" width="120" height="50" as="geometry"/></mxCell><mxCell id="EzQO0P8P0J9VhYN0GSIs-18" value="" style="rounded=0;whiteSpace=wrap;html=1;" parent="1" vertex="1"><mxGeometry x="490" y="420" width="80" height="50" as="geometry"/></mxCell><mxCell id="EzQO0P8P0J9VhYN0GSIs-19" value="last" style="text;html=1;strokeColor=none;fillColor=none;align=center;verticalAlign=middle;whiteSpace=wrap;rounded=0;" parent="1" vertex="1"><mxGeometry x="430" y="430" width="60" height="30" as="geometry"/></mxCell><mxCell id="EzQO0P8P0J9VhYN0GSIs-20" value="" style="endArrow=classic;html=1;rounded=0;entryX=0;entryY=0.5;entryDx=0;entryDy=0;exitX=1;exitY=0.5;exitDx=0;exitDy=0;" parent="1" source="EzQO0P8P0J9VhYN0GSIs-18" target="EzQO0P8P0J9VhYN0GSIs-17" edge="1"><mxGeometry width="50" height="50" relative="1" as="geometry"><mxPoint x="570" y="450" as="sourcePoint"/><mxPoint x="620" y="400" as="targetPoint"/></mxGeometry></mxCell></root></mxGraphModel></diagram></mxfile>